<?xml version="1.0" encoding="utf-8"?>
<!-- Generator: Adobe Illustrator 16.0.0, SVG Export Plug-In . SVG Version: 6.00 Build 0)  -->
<!DOCTYPE svg PUBLIC "-//W3C//DTD SVG 1.1//EN" "http://www.w3.org/Graphics/SVG/1.1/DTD/svg11.dtd">
<svg version="1.1" id="Layer_1" xmlns="http://www.w3.org/2000/svg" xmlns:xlink="http://www.w3.org/1999/xlink" x="0px" y="0px"
	 width="283.46px" height="283.46px" viewBox="0 0 283.46 283.46" enable-background="new 0 0 283.46 283.46" xml:space="preserve">
<g>
	<path fill-rule="evenodd" clip-rule="evenodd" d="M19.117,141.256c0-18.026-0.237-36.057,0.084-54.078
		c0.207-11.541,5.552-20.705,15.498-26.644C62.388,44.001,90.204,27.682,117.97,11.28c2.712-1.602,5.337-3.385,8.161-4.756
		c9.947-4.831,20.116-5.132,29.749,0.381C175.264,18,194.401,29.528,213.645,40.871c10.697,6.306,21.376,12.641,32.108,18.885
		c9.38,5.46,14.498,13.758,16.431,24.228c0.192,1.042,0.147,2.134,0.147,3.202c0.008,36.053,0.133,72.105-0.067,108.157
		c-0.063,11.446-5.364,20.728-15.1,26.57c-30.207,18.133-60.584,35.991-91.055,53.677c-9.891,5.738-20.577,5.865-30.473,0.147
		c-28.859-16.677-57.489-33.752-86.196-50.69c-4.642-2.739-9.419-5.275-12.778-9.76c-4.765-6.361-7.666-13.238-7.594-21.381
		C19.226,176.357,19.117,158.806,19.117,141.256z M253.718,141.34c0-17.91,0.167-35.822-0.073-53.729
		c-0.113-8.379-4.023-15.181-11.188-19.58c-11.188-6.868-22.594-13.377-33.904-20.044c-18.733-11.044-37.419-22.17-56.216-33.104
		c-7.633-4.439-15.542-4.328-23.245-0.001c-5.646,3.171-11.169,6.561-16.749,9.849C88.08,39.033,63.783,53.276,39.573,67.666
		c-7.741,4.602-11.77,11.71-11.796,20.691c-0.103,35.283-0.103,70.564,0,105.848c0.026,9.044,4.125,16.096,11.886,20.822
		c6.595,4.016,13.297,7.854,19.95,11.776c23.086,13.611,46.188,27.195,69.244,40.854c5.723,3.391,11.856,4.2,18.008,2.293
		c4.12-1.277,7.957-3.642,11.724-5.854c27.828-16.334,55.641-32.693,83.377-49.185c7.667-4.559,11.631-11.656,11.707-20.56
		C253.827,176.683,253.719,159.01,253.718,141.34z"/>
	<path fill-rule="evenodd" clip-rule="evenodd" d="M216.717,72.224c-0.029,3.049-3.504,4.978-6.644,3.207
		c-4.502-2.54-8.953-5.169-13.422-7.765c-11.146-6.473-22.288-12.949-33.432-19.423c-5.395-3.134-10.793-6.26-16.182-9.405
		c-4.287-2.501-8.572-2.486-12.835-0.002c-20.689,12.052-41.359,24.134-62.081,36.13c-1.193,0.691-2.815,1.085-4.168,0.947
		c-1.754-0.181-2.9-1.552-3.176-3.395c-0.307-2.047,0.5-3.596,2.279-4.635c5.079-2.968,10.158-5.935,15.24-8.897
		c15.758-9.187,31.516-18.378,47.278-27.559c7.307-4.255,14.638-4.311,21.971-0.055c15.263,8.859,30.521,17.723,45.781,26.585
		c5.595,3.249,11.182,6.513,16.783,9.748C215.718,68.633,216.777,69.863,216.717,72.224z"/>
	<path fill-rule="evenodd" clip-rule="evenodd" d="M173.483,129.455c-2.532,9.864-5.063,19.73-7.602,29.592
		c-0.191,0.747-0.421,1.485-0.668,2.216c-0.868,2.579-2.572,3.91-5.076,3.991c-2.559,0.083-4.574-1.137-5.434-3.768
		c-1.065-3.264-1.861-6.617-2.721-9.946c-1.88-7.293-3.727-14.596-5.594-21.893c-0.042-0.161-0.145-0.306-0.389-0.801
		c-0.035,0.804-0.074,1.279-0.074,1.755c-0.003,9.873,0.013,19.746-0.009,29.618c-0.007,3.245-1.903,5.236-4.675,5.026
		c-2.379-0.179-3.942-1.869-3.983-4.621c-0.08-5.41-0.05-10.823-0.052-16.234c-0.003-6.956,0.005-13.909,0.011-20.864
		c0.003-3.506,1.5-5.079,5.052-5.23c1.723-0.074,3.449-0.087,5.175-0.051c2.984,0.062,4.063,0.792,4.885,3.692
		c1.861,6.562,3.608,13.156,5.404,19.737c0.667,2.442,1.346,4.881,2.334,7.299c1.942-7.172,3.877-14.348,5.833-21.516
		c0.577-2.115,1.198-4.219,1.828-6.32c0.472-1.569,1.52-2.645,3.164-2.725c2.604-0.127,5.243-0.286,7.817,0.009
		c2.862,0.326,3.909,1.892,3.912,4.997c0.01,11.776,0.01,23.552-0.017,35.327c-0.002,1.176-0.044,2.393-0.341,3.518
		c-0.52,1.958-2.138,3.026-4.139,2.99c-1.88-0.033-3.447-1.151-3.969-3.004c-0.255-0.898-0.349-1.87-0.351-2.809
		c-0.026-9.634-0.018-19.27-0.02-28.904c0-0.352,0-0.705,0-1.057C173.688,129.471,173.586,129.462,173.483,129.455z"/>
	<path fill-rule="evenodd" clip-rule="evenodd" d="M236.252,141.367c0.069,5.984-1.188,11.593-5.061,16.319
		c-5.011,6.113-11.86,7.86-19.348,7.513c-7.938-0.367-14.578-3.331-18.555-10.665c-2.749-5.067-3.592-10.593-2.909-16.238
		c0.373-3.079,1.177-6.199,2.353-9.069c2.14-5.221,6.176-8.668,11.53-10.434c5.937-1.957,11.952-1.929,17.878-0.011
		c8.471,2.739,13.748,10.367,14.106,20.085C236.278,139.7,236.252,140.534,236.252,141.367z M226.899,141.768
		c-0.393-2.585-0.569-4.786-1.08-6.904c-1.324-5.511-5.553-9.331-10.677-9.85c-6.563-0.667-10.656,1.416-13.424,7.068
		c-2.721,5.554-2.438,11.318-0.501,16.991c1.899,5.558,6.241,8.61,11.785,8.712c5.649,0.104,10.292-2.975,12.283-8.558
		C226.168,146.752,226.424,144.052,226.899,141.768z"/>
	<path fill-rule="evenodd" clip-rule="evenodd" d="M45.191,141.19c-0.002-5.945-0.011-11.89,0.001-17.835
		c0.007-3.06,1.486-5.019,4.344-5.055c6.24-0.079,12.502-0.175,18.72,0.256c8.692,0.602,13.774,5.906,16,13.973
		c1.773,6.428,1.654,12.97-0.503,19.325c-2.562,7.549-8.78,12.168-16.784,12.427c-5.707,0.186-11.424,0.097-17.135,0.038
		c-3.098-0.031-4.594-1.696-4.624-5.101C45.155,153.209,45.193,147.198,45.191,141.19z M54.727,125.383c0,10.767,0,21.123,0,31.511
		c3.401,0,6.612,0.137,9.807-0.03c5.438-0.285,8.525-2.688,10.093-7.938c1.528-5.121,1.544-10.363,0.064-15.482
		c-1.087-3.754-3.509-6.634-7.591-7.185C63.064,125.712,58.963,125.662,54.727,125.383z"/>
	<path fill-rule="evenodd" clip-rule="evenodd" d="M103.327,125.406c0,0.788,0,1.317,0,1.847c0,3.088,0,6.177,0,9.518
		c0.682,0,1.254-0.001,1.824,0c5.71,0,11.419-0.014,17.13,0.018c0.877,0.004,1.757,0.191,2.627,0.339
		c1.784,0.303,2.452,1.505,2.458,3.182c0.007,1.743-0.917,3.055-2.618,3.297c-1.634,0.232-3.313,0.204-4.971,0.209
		c-5.394,0.022-10.788,0.008-16.336,0.008c0,4.396,0,8.642,0,13.152c2.801,0,5.63,0.002,8.459,0
		c4.342-0.001,8.684-0.009,13.025,0.002c0.593,0.002,1.188,0.064,1.777,0.139c2.08,0.264,3.428,1.738,3.38,3.681
		c-0.046,1.947-1.467,3.45-3.546,3.519c-2.733,0.089-5.471,0.038-8.207,0.041c-6.364,0.003-12.729,0.02-19.093,0
		c-3.83-0.014-5.458-1.627-5.461-5.421c-0.014-11.717-0.014-23.434-0.001-35.151c0.004-3.892,1.646-5.545,5.544-5.555
		c8.565-0.02,17.13-0.014,25.695,0.001c2.241,0.004,3.638,0.876,4.1,2.457c0.75,2.567-0.86,4.644-3.791,4.691
		c-4.4,0.071-8.803,0.023-13.204,0.025C109.275,125.407,106.431,125.406,103.327,125.406z"/>
</g>
</svg>
