<?xml version="1.0" encoding="utf-8"?>
<!-- Generator: Adobe Illustrator 16.0.0, SVG Export Plug-In . SVG Version: 6.00 Build 0)  -->
<!DOCTYPE svg PUBLIC "-//W3C//DTD SVG 1.1//EN" "http://www.w3.org/Graphics/SVG/1.1/DTD/svg11.dtd">
<svg version="1.1" id="Layer_1" xmlns="http://www.w3.org/2000/svg" xmlns:xlink="http://www.w3.org/1999/xlink" x="0px" y="0px"
	 width="283.464px" height="283.46px" viewBox="0 0 283.464 283.46" enable-background="new 0 0 283.464 283.46"
	 xml:space="preserve">
<g>
	<path fill-rule="evenodd" clip-rule="evenodd" d="M142.048,140.826c0.069,5.976-1.184,11.572-5.051,16.291
		c-5.001,6.104-11.838,7.849-19.313,7.501c-7.923-0.368-14.552-3.325-18.521-10.646c-2.744-5.061-3.587-10.575-2.904-16.211
		c0.372-3.075,1.174-6.189,2.348-9.053c2.135-5.212,6.165-8.653,11.51-10.415c5.927-1.953,11.931-1.926,17.845-0.012
		c8.456,2.735,13.725,10.348,14.081,20.051C142.072,139.162,142.048,139.995,142.048,140.826z M132.712,141.226
		c-0.392-2.58-0.568-4.777-1.078-6.892c-1.323-5.501-5.543-9.314-10.66-9.833c-6.551-0.665-10.636,1.414-13.399,7.056
		c-2.715,5.544-2.435,11.298-0.5,16.962c1.895,5.549,6.231,8.597,11.763,8.697c5.641,0.104,10.275-2.97,12.262-8.542
		C131.983,146.203,132.237,143.508,132.712,141.226z"/>
	<path fill-rule="evenodd" clip-rule="evenodd" d="M146.789,140.65c-0.002-5.936-0.012-11.87,0.002-17.805
		c0.006-3.053,1.482-5.009,4.334-5.045c6.229-0.079,12.48-0.174,18.688,0.255c8.675,0.601,13.748,5.896,15.971,13.949
		c1.77,6.417,1.651,12.949-0.503,19.291c-2.558,7.538-8.765,12.146-16.755,12.405c-5.697,0.187-11.405,0.096-17.105,0.038
		c-3.093-0.031-4.586-1.692-4.616-5.092C146.751,152.648,146.791,146.648,146.789,140.65z M156.306,124.871
		c0,10.748,0,21.086,0,31.457c3.396,0,6.603,0.137,9.79-0.032c5.43-0.283,8.511-2.683,10.075-7.924
		c1.527-5.113,1.543-10.347,0.063-15.455c-1.084-3.749-3.501-6.623-7.576-7.172C164.629,125.199,160.536,125.148,156.306,124.871z"
		/>
	<path fill-rule="evenodd" clip-rule="evenodd" d="M203.098,124.893c0,0.788,0,1.315,0,1.844c0,3.083,0,6.166,0,9.501
		c0.679,0,1.25,0,1.821,0c5.698,0.001,11.398-0.013,17.098,0.019c0.876,0.005,1.755,0.191,2.624,0.339
		c1.781,0.303,2.447,1.502,2.453,3.177c0.006,1.739-0.916,3.05-2.613,3.291c-1.632,0.231-3.307,0.202-4.963,0.209
		c-5.383,0.022-10.769,0.008-16.308,0.008c0,4.388,0,8.625,0,13.129c2.797,0,5.621,0.001,8.444,0c4.334,0,8.668-0.008,13.004,0.002
		c0.591,0.002,1.185,0.064,1.773,0.14c2.075,0.262,3.422,1.735,3.374,3.673c-0.047,1.944-1.464,3.444-3.541,3.512
		c-2.727,0.091-5.46,0.039-8.191,0.041c-6.353,0.004-12.705,0.02-19.059,0c-3.824-0.012-5.448-1.623-5.452-5.41
		c-0.014-11.696-0.014-23.393,0-35.09c0.004-3.885,1.642-5.535,5.534-5.544c8.55-0.02,17.099-0.015,25.646,0.001
		c2.238,0.003,3.634,0.874,4.094,2.452c0.75,2.562-0.857,4.636-3.784,4.683c-4.392,0.07-8.785,0.023-13.18,0.024
		C209.035,124.894,206.195,124.893,203.098,124.893z"/>
	<path fill-rule="evenodd" clip-rule="evenodd" d="M141.284,19.486c17.993,0,35.993-0.237,53.982,0.084
		c11.52,0.206,20.669,5.542,26.596,15.469c16.503,27.641,32.794,55.407,49.167,83.125c1.599,2.707,3.378,5.327,4.748,8.146
		c4.821,9.93,5.124,20.079-0.381,29.693c-11.076,19.35-22.581,38.455-33.905,57.663c-6.294,10.677-12.618,21.339-18.853,32.052
		c-5.449,9.364-13.731,14.474-24.184,16.402c-1.04,0.191-2.132,0.146-3.196,0.146c-35.989,0.008-71.978,0.131-107.964-0.066
		c-11.427-0.063-20.691-5.356-26.524-15.073c-18.102-30.154-35.928-60.476-53.583-90.895c-5.728-9.87-5.854-20.538-0.147-30.416
		C23.688,97.008,40.732,68.43,57.641,39.773c2.734-4.633,5.266-9.402,9.743-12.756c6.35-4.756,13.215-7.652,21.344-7.58
		C106.245,19.594,123.765,19.486,141.284,19.486z M141.201,253.67c17.877,0,35.757,0.167,53.63-0.073
		c8.366-0.112,15.156-4.017,19.548-11.169c6.856-11.168,13.353-22.554,20.009-33.845c11.023-18.698,22.13-37.352,33.045-56.115
		c4.431-7.618,4.32-15.512,0.002-23.202c-3.166-5.636-6.55-11.149-9.833-16.718c-14.275-24.22-28.492-48.475-42.858-72.641
		c-4.594-7.728-11.689-11.749-20.655-11.775c-35.219-0.102-70.439-0.102-105.659,0C79.4,28.157,72.361,32.25,67.643,39.996
		c-4.009,6.583-7.841,13.273-11.756,19.914C42.3,82.956,28.74,106.017,15.105,129.034c-3.385,5.711-4.192,11.833-2.289,17.973
		c1.275,4.111,3.635,7.941,5.843,11.703c16.306,27.777,32.636,55.542,49.097,83.229c4.551,7.653,11.637,11.61,20.524,11.687
		C105.919,253.778,123.561,253.671,141.201,253.67z"/>
	<path fill-rule="evenodd" clip-rule="evenodd" d="M212.348,216.733c-3.045-0.028-4.969-3.496-3.201-6.631
		c2.533-4.494,5.158-8.938,7.75-13.397c6.461-11.126,12.926-22.249,19.392-33.373c3.126-5.385,6.248-10.774,9.388-16.152
		c2.495-4.276,2.481-8.555,0.002-12.811c-12.032-20.654-24.093-41.288-36.067-61.972c-0.688-1.191-1.084-2.81-0.944-4.161
		c0.18-1.751,1.549-2.895,3.388-3.17c2.044-0.306,3.589,0.499,4.628,2.276c2.964,5.069,5.923,10.14,8.881,15.212
		c9.171,15.731,18.346,31.46,27.509,47.195c4.249,7.293,4.303,14.611,0.057,21.93c-8.844,15.234-17.692,30.468-26.54,45.7
		c-3.244,5.584-6.502,11.161-9.73,16.755C215.931,215.737,214.704,216.795,212.348,216.733z"/>
	<path fill-rule="evenodd" clip-rule="evenodd" d="M70.271,65.004c3.043,0.029,4.969,3.497,3.201,6.632
		c-2.535,4.493-5.159,8.937-7.75,13.397c-6.461,11.125-12.926,22.249-19.389,33.374c-3.129,5.384-6.25,10.772-9.389,16.151
		c-2.497,4.275-2.482,8.554-0.002,12.813c12.03,20.652,24.092,41.286,36.066,61.971c0.689,1.19,1.083,2.81,0.946,4.161
		c-0.18,1.751-1.549,2.894-3.388,3.17c-2.045,0.307-3.589-0.498-4.627-2.275c-2.963-5.068-5.923-10.14-8.881-15.213
		c-9.172-15.73-18.345-31.459-27.51-47.195c-4.248-7.292-4.303-14.612-0.055-21.929c8.844-15.235,17.692-30.468,26.539-45.701
		c3.243-5.585,6.5-11.162,9.73-16.754C66.687,66.001,67.915,64.943,70.271,65.004z"/>
	<path fill-rule="evenodd" clip-rule="evenodd" d="M81.965,150.009c-2.236,4.63-6.518,7.158-11.635,7.064
		c-5.533-0.102-9.868-3.148-11.764-8.697c-1.935-5.663-2.216-11.417,0.5-16.962c2.764-5.641,6.848-7.721,13.399-7.057
		c4.3,0.438,7.96,3.206,9.806,7.342l10.079-0.415c-2.04-6.329-6.578-11.102-12.899-13.146c-5.915-1.912-11.92-1.941-17.846,0.012
		c-5.345,1.764-9.374,5.205-11.51,10.415c-1.174,2.866-1.975,5.98-2.347,9.053c-0.684,5.637,0.159,11.152,2.903,16.211
		c3.969,7.32,10.599,10.28,18.522,10.646c7.475,0.348,14.312-1.397,19.313-7.499c1.751-2.136,2.963-4.456,3.762-6.905
		L81.965,150.009z"/>
</g>
</svg>
